HIERARCHY
ROOT Hips
{
	OFFSET 0.00000 0.00000 0.00000
	CHANNELS 6 Xposition Yposition Zposition Zrotation Yrotation Xrotation 
	JOINT LHipJoint
	{
		OFFSET 0 0 0
		CHANNELS 3 Zrotation Yrotation Xrotation
		JOINT LeftUpLeg
		{
			OFFSET 1.37590 -1.78394 0.89329
			CHANNELS 3 Zrotation Yrotation Xrotation
			JOINT LeftLeg
			{
				OFFSET 2.47928 -6.81178 0.00000
				CHANNELS 3 Zrotation Yrotation Xrotation
				JOINT LeftFoot
				{
					OFFSET 2.63345 -7.23535 0.00000
					CHANNELS 3 Zrotation Yrotation Xrotation
					JOINT LeftToeBase
					{
						OFFSET 0.23938 -0.65768 2.27012
						CHANNELS 3 Zrotation Yrotation Xrotation
						End Site
						{
							OFFSET 0.00000 -0.00000 1.18363
						}
					}
				}
			}
		}
	}
	JOINT RHipJoint
	{
		OFFSET 0 0 0
		CHANNELS 3 Zrotation Yrotation Xrotation
		JOINT RightUpLeg
		{
			OFFSET -1.33617 -1.78394 0.89329
			CHANNELS 3 Zrotation Yrotation Xrotation
			JOINT RightLeg
			{
				OFFSET -2.56922 -7.05888 0.00000
				CHANNELS 3 Zrotation Yrotation Xrotation
				JOINT RightFoot
				{
					OFFSET -2.56568 -7.04915 0.00000
					CHANNELS 3 Zrotation Yrotation Xrotation
					JOINT RightToeBase
					{
						OFFSET -0.27533 -0.75646 2.18105
						CHANNELS 3 Zrotation Yrotation Xrotation
						End Site
						{
							OFFSET -0.00000 -0.00000 1.15233
						}
					}
				}
			}
		}
	}
	JOINT LowerBack
	{
		OFFSET 0 0 0
		CHANNELS 3 Zrotation Yrotation Xrotation
		JOINT Spine
		{
			OFFSET 0.06190 2.15152 -0.00935
			CHANNELS 3 Zrotation Yrotation Xrotation
			JOINT Spine1
			{
				OFFSET 0.06334 2.15332 0.00872
				CHANNELS 3 Zrotation Yrotation Xrotation
				JOINT Neck
				{
					OFFSET 0 0 0
					CHANNELS 3 Zrotation Yrotation Xrotation
					JOINT Neck1
					{
						OFFSET -0.04202 1.66908 0.23524
						CHANNELS 3 Zrotation Yrotation Xrotation
						JOINT Head
						{
							OFFSET 0.07510 1.69357 -0.24440
							CHANNELS 3 Zrotation Yrotation Xrotation
							End Site
							{
								OFFSET 0.02556 1.71719 -0.11000
							}
						}
					}
				}
				JOINT LeftShoulder
				{
					OFFSET 0 0 0
					CHANNELS 3 Zrotation Yrotation Xrotation
					JOINT LeftArm
					{
						OFFSET 3.67168 1.26306 -0.41342
						CHANNELS 3 Zrotation Yrotation Xrotation
						JOINT LeftForeArm
						{
							OFFSET 4.68510 -0.00000 -0.00000
							CHANNELS 3 Zrotation Yrotation Xrotation
							JOINT LeftHand
							{
								OFFSET 3.39626 -0.00000 -0.00000
								CHANNELS 3 Zrotation Yrotation Xrotation
								JOINT LeftFingerBase
								{
									OFFSET 0 0 0
									CHANNELS 3 Zrotation Yrotation Xrotation
									JOINT LeftHandIndex1
									{
										OFFSET 0.48608 -0.00000 -0.00000
										CHANNELS 3 Zrotation Yrotation Xrotation
										End Site
										{
											OFFSET 0.39189 -0.00000 -0.00000
										}
									}
								}
								JOINT LThumb
								{
									OFFSET 0 0 0
									CHANNELS 3 Zrotation Yrotation Xrotation
									End Site
									{
										OFFSET 0.39787 -0.00000 0.39787
									}
								}
							}
						}
					}
				}
				JOINT RightShoulder
				{
					OFFSET 0 0 0
					CHANNELS 3 Zrotation Yrotation Xrotation
					JOINT RightArm
					{
						OFFSET -3.04136 1.42992 -0.76390
						CHANNELS 3 Zrotation Yrotation Xrotation
						JOINT RightForeArm
						{
							OFFSET -5.55576 -0.00000 -0.00000
							CHANNELS 3 Zrotation Yrotation Xrotation
							JOINT RightHand
							{
								OFFSET -3.32774 -0.00000 -0.00000
								CHANNELS 3 Zrotation Yrotation Xrotation
								JOINT RightFingerBase
								{
									OFFSET 0 0 0
									CHANNELS 3 Zrotation Yrotation Xrotation
									JOINT RightHandIndex1
									{
										OFFSET -0.50763 -0.00000 -0.00000
										CHANNELS 3 Zrotation Yrotation Xrotation
										End Site
										{
											OFFSET -0.40926 -0.00000 -0.00000
										}
									}
								}
								JOINT RThumb
								{
									OFFSET 0 0 0
									CHANNELS 3 Zrotation Yrotation Xrotation
									End Site
									{
										OFFSET -0.41551 -0.00000 0.41551
									}
								}
							}
						}
					}
				}
			}
		}
	}
}
MOTION
Frames: 15
Frame Time: .0083333
-5.3239 17.8959 4.5528 -442.4380 -82.3383 448.2500 0.0000 0.0000 0.0000 -4.5689 -11.9316 -28.7473 0.8404 5.8478 16.3434 -0.1239 6.7796 -5.3291 0.3606 -3.8577 -10.6767 0.0000 0.0000 0.0000 32.7314 0.9481 2.6182 -0.7431 -5.5065 15.3589 -0.6992 -3.7925 -17.6221 -0.0789 -1.8115 4.9849 6.2676 4.4301 -4.8816 2.7287 5.5884 -5.8039 -0.5191 2.5296 -2.9688 -6.8600 2.4701 -5.0985 10.5379 3.6184 -2.0768 4.7947 1.8832 -0.1107 -0.0000 -0.0000 0.0000 -43.0180 -49.8401 1.3463 51.1429 -53.4462 -27.0896 -0.0000 0.0000 -15.9327 6.1737 32.0898 3.2889 -7.1250 0.0000 -0.0000 -29.5179 59.7109 -11.1887 -0.0000 -0.0000 0.0000 74.2818 19.9917 26.7818 -24.3635 35.5463 -7.9169 0.0000 -0.0000 -4.7874 -16.0179 -31.2910 8.4807 7.1250 -0.0000 -0.0000 18.5675 -61.3287 -7.5284
-5.4577 17.8840 4.5722 -444.9400 -82.4165 450.8220 0.0000 0.0000 0.0000 -4.4113 -12.1522 -28.7808 0.7928 5.6835 15.8687 -0.1468 7.2291 -5.3255 0.3418 -3.7566 -10.3928 0.0000 0.0000 0.0000 32.5894 0.9201 2.9596 -0.7570 -5.5569 15.5041 -0.7132 -3.7041 -17.7203 -0.0574 -1.5464 4.2537 6.3377 4.5074 -4.9385 2.7167 5.6824 -5.8368 -0.5626 2.5720 -2.9596 -6.9789 2.4212 -4.7741 11.0174 3.6233 -3.2086 4.4748 1.8544 -0.4849 0.0000 0.0000 0.0000 -43.6214 -49.0780 1.9469 51.5331 -53.5954 -27.4033 -0.0000 0.0000 -15.0844 6.4903 31.7520 3.4261 -7.1250 0.0000 -0.0000 -28.8942 59.4922 -10.7740 0.0000 0.0000 0.0000 74.4606 20.5126 27.4000 -24.7233 35.9198 -8.1270 0.0000 -0.0000 -5.0110 -15.7514 -31.0780 8.2840 7.1250 -0.0000 -0.0000 18.6878 -61.0628 -7.4608
-5.5934 17.8723 4.5920 -447.3290 -82.4780 453.2780 0.0000 0.0000 0.0000 -4.2619 -12.3655 -28.8067 0.7533 5.5434 15.4652 -0.1689 7.6422 -5.3247 0.3251 -3.6646 -10.1350 0.0000 0.0000 0.0000 32.4424 0.8892 3.2926 -0.7734 -5.6153 15.6722 -0.7246 -3.6208 -17.7943 -0.0390 -1.2744 3.5041 6.4078 4.5783 -4.9963 2.7053 5.7675 -5.8644 -0.6054 2.6103 -2.9445 -7.1413 2.3707 -4.4269 11.1645 3.6189 -4.3500 4.5360 1.8201 -0.8794 0.0000 0.0000 0.0000 -44.3248 -48.2329 2.6368 51.9358 -53.7470 -27.7278 -0.0000 0.0000 -14.2543 6.8186 31.4198 3.5668 -7.1250 0.0000 -0.0000 -28.2704 59.2786 -10.3711 0.0000 0.0000 0.0000 74.6456 21.0173 28.0041 -25.0831 36.2888 -8.3391 0.0000 -0.0000 -5.2367 -15.4653 -30.8738 8.0805 7.1250 -0.0000 -0.0000 18.8369 -60.8011 -7.4053
-5.7309 17.8608 4.6122 -449.5840 -82.5259 455.5930 0.0000 0.0000 0.0000 -4.1246 -12.5693 -28.8227 0.7211 5.4261 15.1280 -0.1896 8.0133 -5.3205 0.3093 -3.5753 -9.8849 0.0000 0.0000 0.0000 32.2899 0.8548 3.6159 -0.7925 -5.6826 15.8661 -0.7334 -3.5411 -17.8422 -0.0239 -0.9976 2.7423 6.4766 4.6427 -5.0557 2.6945 5.8438 -5.8867 -0.6466 2.6446 -2.9234 -7.2906 2.3191 -4.0914 11.3092 3.6106 -5.4655 4.5971 1.7832 -1.2639 0.0000 0.0000 0.0000 -45.1213 -47.3082 3.4062 52.3497 -53.9003 -28.0619 -0.0000 0.0000 -13.4383 7.1587 31.0942 3.7113 -7.1250 0.0000 -0.0000 -27.6469 59.0711 -9.9803 0.0000 0.0000 0.0000 74.8347 21.5054 28.5922 -25.4421 36.6525 -8.5524 0.0000 -0.0000 -5.4659 -15.1652 -30.6758 7.8730 7.1250 -0.0000 -0.0000 19.0059 -60.5427 -7.3573
-5.8704 17.8496 4.6329 -451.6780 -82.5637 457.7440 0.0000 0.0000 0.0000 -4.0035 -12.7628 -28.8301 0.6955 5.3311 14.8554 -0.2089 8.3440 -5.3066 0.2948 -3.4913 -9.6497 0.0000 0.0000 0.0000 32.1308 0.8173 3.9260 -0.8148 -5.7600 16.0897 -0.7394 -3.4658 -17.8619 -0.0122 -0.7143 1.9631 6.5423 4.7000 -5.1157 2.6837 5.9105 -5.9054 -0.6862 2.6745 -2.8989 -7.4256 2.2667 -3.7676 11.4507 3.5985 -6.5514 4.6579 1.7438 -1.6375 -0.0000 0.0000 0.0000 -46.0020 -46.3047 4.2445 52.7708 -54.0537 -28.4024 -0.0000 0.0000 -12.6336 7.5085 30.7765 3.8584 -7.1250 0.0000 -0.0000 -27.0260 58.8703 -9.6028 -0.0000 0.0000 0.0000 75.0272 21.9750 29.1638 -25.7997 37.0102 -8.7668 0.0000 -0.0000 -5.6967 -14.8559 -30.4777 7.6625 7.1250 -0.0000 -0.0000 19.1846 -60.2829 -7.3102
-6.0118 17.8388 4.6540 -453.5940 -82.5964 459.7120 0.0000 0.0000 0.0000 -3.9041 -12.9468 -28.8281 0.6760 5.2574 14.6442 -0.2269 8.6409 -5.2865 0.2821 -3.4162 -9.4397 0.0000 0.0000 0.0000 31.9629 0.7773 4.2210 -0.8406 -5.8484 16.3452 -0.7420 -3.3952 -17.8496 -0.0043 -0.4250 1.1679 6.6015 4.7498 -5.1789 2.6725 5.9672 -5.9197 -0.7226 2.6999 -2.8690 -7.5469 2.2129 -3.4562 11.5893 3.5823 -7.6077 4.7182 1.7018 -2.0001 0.0000 -0.0000 0.0000 -46.9590 -45.2282 5.1383 53.1939 -54.2051 -28.7453 -0.0000 0.0000 -11.8376 7.8662 30.4687 4.0074 -7.1250 0.0000 -0.0000 -26.4113 58.6777 -9.2404 0.0000 -0.0000 0.0000 75.2203 22.4278 29.7165 -26.1560 37.3624 -8.9822 0.0000 -0.0000 -5.9291 -14.5381 -30.2793 7.4496 7.1250 -0.0000 -0.0000 19.3722 -60.0218 -7.2637
-6.1554 17.8284 4.6756 -455.3250 -82.6273 461.4900 0.0000 0.0000 0.0000 -3.8309 -13.1173 -28.8161 0.6622 5.2046 14.4930 -0.2427 8.8953 -5.2618 0.2705 -3.3459 -9.2432 0.0000 0.0000 0.0000 31.7852 0.7345 4.4981 -0.8704 -5.9486 16.6354 -0.7406 -3.3330 -17.7993 -0.0004 -0.1263 0.3471 6.6527 4.7915 -5.2443 2.6610 6.0129 -5.9293 -0.7548 2.7206 -2.8342 -7.6551 2.1570 -3.1606 11.7234 3.5608 -8.6327 4.7779 1.6569 -2.3508 -0.0000 -0.0000 0.0000 -47.9842 -44.0834 6.0731 53.6096 -54.3515 -29.0827 -0.0000 0.0000 -11.0473 8.2274 30.1636 4.1554 -7.1250 0.0000 -0.0000 -25.8005 58.4864 -8.8874 -0.0000 -0.0000 0.0000 75.4129 22.8643 30.2492 -26.5124 37.7103 -9.1993 0.0000 -0.0000 -6.1631 -14.2119 -30.0839 7.2351 7.1250 -0.0000 -0.0000 19.5706 -59.7625 -7.2197
-6.3009 17.8186 4.6975 -456.8710 -82.6602 463.0780 0.0000 0.0000 0.0000 -3.7881 -13.2702 -28.7958 0.6539 5.1725 14.4011 -0.2561 9.1034 -5.2319 0.2597 -3.2787 -9.0558 0.0000 0.0000 0.0000 31.5966 0.6901 4.7533 -0.9049 -6.0621 16.9647 -0.7348 -3.2800 -17.7067 -0.0008 0.1812 -0.4979 6.6937 4.8261 -5.3102 2.6478 6.0494 -5.9365 -0.7835 2.7372 -2.7978 -7.7485 2.0986 -2.8815 11.8547 3.5337 -9.6191 4.8370 1.6091 -2.6874 0.0000 -0.0000 0.0000 -49.0709 -42.8745 7.0430 54.0089 -54.4897 -29.4076 -0.0000 0.0000 -10.2650 8.5941 29.8605 4.3032 -7.1250 0.0000 -0.0000 -25.1907 58.2955 -8.5423 0.0000 -0.0000 0.0000 75.6047 23.2821 30.7560 -26.8674 38.0524 -9.4173 0.0000 -0.0000 -6.3957 -13.8743 -29.8921 7.0176 7.1250 -0.0000 -0.0000 19.7837 -59.5049 -7.1795
-6.4484 17.8095 4.7199 -458.2170 -82.6977 464.4580 0.0000 0.0000 0.0000 -3.7796 -13.4040 -28.7647 0.6507 5.1600 14.3656 -0.2667 9.2641 -5.1963 0.2499 -3.2165 -8.8820 0.0000 0.0000 0.0000 31.3965 0.6410 4.9838 -0.9446 -6.1901 17.3370 -0.7242 -3.2363 -17.5684 -0.0059 0.4943 -1.3583 6.7237 4.8521 -5.3759 2.6338 6.0750 -5.9395 -0.8074 2.7491 -2.7586 -7.8307 2.0372 -2.6239 11.9845 3.5005 -10.5653 4.8963 1.5584 -3.0085 0.0000 0.0000 0.0000 -50.2113 -41.6081 8.0330 54.3804 -54.6164 -29.7102 -0.0000 0.0000 -9.4900 8.9703 29.5537 4.4520 -7.1250 0.0000 -0.0000 -24.5737 58.1016 -8.1996 0.0000 0.0000 0.0000 75.7918 23.6869 31.2400 -27.2195 38.3877 -9.6351 0.0000 -0.0000 -6.6328 -13.5305 -29.7065 6.8005 7.1250 -0.0000 -0.0000 20.0070 -59.2527 -7.1430
-6.5980 17.8010 4.7426 -459.3650 -82.7414 465.6330 0.0000 0.0000 0.0000 -3.8069 -13.5156 -28.7213 0.6524 5.1664 14.3837 -0.2741 9.3731 -5.1567 0.2406 -3.1569 -8.7160 0.0000 0.0000 0.0000 31.1849 0.5862 5.1864 -0.9904 -6.3341 17.7569 -0.7087 -3.1984 -17.3780 -0.0156 0.8052 -2.2129 6.7432 4.8702 -5.4405 2.6182 6.0907 -5.9391 -0.8275 2.7567 -2.7177 -7.9012 1.9722 -2.3827 12.1121 3.4605 -11.4741 4.9555 1.5044 -3.3160 -0.0000 -0.0000 0.0000 -51.3980 -40.2895 9.0351 54.7095 -54.7269 -29.9787 -0.0000 0.0000 -8.7226 9.3446 29.2419 4.5958 -7.1250 0.0000 -0.0000 -23.9601 57.9005 -7.8611 -0.0000 -0.0000 0.0000 75.9744 24.0747 31.6974 -27.5721 38.7193 -9.8549 0.0000 -0.0000 -6.8730 -13.1828 -29.5280 6.5851 7.1250 -0.0000 -0.0000 20.2392 -59.0073 -7.1102
-6.7494 17.7933 4.7657 -460.3090 -82.7924 466.5970 0.0000 0.0000 0.0000 -3.8707 -13.6033 -28.6648 0.6584 5.1898 14.4506 -0.2781 9.4290 -5.1105 0.2322 -3.1013 -8.5610 0.0000 0.0000 0.0000 30.9639 0.5273 5.3581 -1.0431 -6.4953 18.2285 -0.6875 -3.1711 -17.1299 -0.0295 1.1083 -3.0469 6.7526 4.8807 -5.5032 2.6007 6.0970 -5.9356 -0.8446 2.7602 -2.6760 -7.9592 1.9034 -2.1591 12.2372 3.4134 -12.3439 5.0142 1.4471 -3.6088 0.0000 0.0000 0.0000 -52.6228 -38.9248 10.0414 54.9858 -54.8186 -30.2043 -0.0000 0.0000 -7.9638 9.7176 28.9276 4.7352 -7.1250 0.0000 -0.0000 -23.3512 57.6947 -7.5290 0.0000 0.0000 0.0000 76.1516 24.4465 32.1249 -27.9247 39.0468 -10.0762 0.0000 -0.0000 -7.1172 -12.8311 -29.3557 6.3711 7.1250 -0.0000 -0.0000 20.4794 -58.7678 -7.0805
-6.9028 17.7863 4.7891 -461.0580 -82.8521 467.3560 0.0000 0.0000 0.0000 -3.9712 -13.6671 -28.5927 0.6684 5.2284 14.5610 -0.2790 9.4347 -5.0564 0.2246 -3.0506 -8.4195 0.0000 0.0000 0.0000 30.7337 0.4656 5.4954 -1.1037 -6.6752 18.7566 -0.6606 -3.1570 -16.8196 -0.0471 1.4010 -3.8529 6.7517 4.8842 -5.5636 2.5811 6.0946 -5.9288 -0.8589 2.7599 -2.6333 -8.0076 1.8300 -1.9537 12.3625 3.3587 -13.1742 5.0735 1.3863 -3.8870 -0.0000 0.0000 0.0000 -53.8780 -37.5217 11.0418 55.1934 -54.8868 -30.3741 -0.0000 0.0000 -7.2120 10.0927 28.6155 4.8725 -7.1250 0.0000 -0.0000 -22.7473 57.4892 -7.2059 -0.0000 0.0000 0.0000 76.3218 24.8043 32.5213 -28.2776 39.3705 -10.2993 0.0000 -0.0000 -7.3685 -12.4744 -29.2009 6.1601 7.1250 -0.0000 -0.0000 20.7368 -58.5445 -7.0622
-7.0579 17.7799 4.8128 -461.6030 -82.9214 467.9060 0.0000 0.0000 0.0000 -4.1076 -13.7077 -28.5067 0.6822 5.2807 14.7110 -0.2767 9.3909 -4.9954 0.2173 -3.0009 -8.2811 0.0000 0.0000 0.0000 30.4956 0.4021 5.5928 -1.1731 -6.8748 19.3450 -0.6272 -3.1617 -16.4399 -0.0669 1.6692 -4.5924 6.7403 4.8806 -5.6212 2.5590 6.0838 -5.9201 -0.8705 2.7559 -2.5915 -8.0465 1.7520 -1.7647 12.4871 3.2961 -13.9657 5.1330 1.3219 -4.1508 0.0000 0.0000 0.0000 -55.1567 -36.0852 12.0287 55.3201 -54.9281 -30.4778 -0.0000 0.0000 -6.4688 10.4804 28.3118 5.0139 -7.1250 0.0000 -0.0000 -22.1416 57.2918 -6.8940 0.0000 0.0000 0.0000 76.4845 25.1492 32.8858 -28.6305 39.6902 -10.5239 0.0000 -0.0000 -7.6289 -12.1190 -29.0545 5.9533 7.1250 -0.0000 -0.0000 20.9976 -58.3302 -7.0469
-7.2147 17.7743 4.8368 -461.9740 -83.0021 468.2740 0.0000 0.0000 0.0000 -4.2817 -13.7262 -28.4000 0.6990 5.3443 14.8931 -0.2715 9.3012 -4.9314 0.2100 -2.9502 -8.1402 0.0000 0.0000 0.0000 30.2474 0.3382 5.6497 -1.2523 -7.0947 19.9962 -0.5874 -3.1866 -15.9868 -0.0875 1.9083 -5.2523 6.7176 4.8715 -5.6752 2.5333 6.0665 -5.9091 -0.8804 2.7492 -2.5503 -8.0770 1.6692 -1.5900 12.6125 3.2258 -14.7198 5.1931 1.2539 -4.4009 0.0000 0.0000 0.0000 -56.4515 -34.6213 12.9950 55.3538 -54.9391 -30.5053 -0.0000 0.0000 -5.7337 10.8642 28.0128 5.1507 -7.1250 0.0000 -0.0000 -21.5482 57.0960 -6.5938 0.0000 0.0000 0.0000 76.6396 25.4821 33.2160 -28.9831 40.0057 -10.7499 0.0000 -0.0000 -7.8993 -11.7684 -28.9192 5.7529 7.1250 -0.0000 -0.0000 21.2607 -58.1282 -7.0360
-7.3733 17.7695 4.8612 -462.1710 -83.0960 468.4580 0.0000 0.0000 0.0000 -4.4941 -13.7274 -28.2661 0.7184 5.4165 15.1003 -0.2637 9.1685 -4.8621 0.2030 -2.9012 -8.0039 0.0000 0.0000 0.0000 29.9879 0.2732 5.6661 -1.3421 -7.3348 20.7112 -0.5407 -3.2427 -15.4508 -0.1072 2.1115 -5.8139 6.6825 4.8570 -5.7256 2.5036 6.0433 -5.8949 -0.8882 2.7402 -2.5087 -8.0999 1.5810 -1.4288 12.7381 3.1468 -15.4369 5.2538 1.1821 -4.6375 0.0000 0.0000 0.0000 -57.7568 -33.1380 13.9335 55.2824 -54.9158 -30.4470 -0.0000 0.0000 -5.0070 11.2516 27.7270 5.2882 -7.1250 0.0000 -0.0000 -20.9649 56.9114 -6.3094 0.0000 0.0000 0.0000 76.7854 25.8048 33.5097 -29.3363 40.3177 -10.9776 0.0000 -0.0000 -8.1805 -11.4173 -28.7983 5.5565 7.1250 -0.0000 -0.0000 21.5335 -57.9403 -7.0333
